<svg viewBox="0 0 22 17"><path d="M22,2.009c-0.808,0.345-1.679,0.577-2.592,0.682c0.932-0.534,1.648-1.375,1.985-2.377
c-0.873,0.493-1.838,0.848-2.866,1.042C17.703,0.522,16.531,0,15.232,0c-2.493,0-4.514,1.922-4.514,4.291
c0,0.336,0.039,0.665,0.117,0.979c-3.752-0.18-7.078-1.889-9.304-4.486C1.143,1.417,0.92,2.156,0.92,2.942
c0,1.49,0.797,2.804,2.009,3.573C2.188,6.493,1.493,6.3,0.884,5.977c0,0.02,0,0.037,0,0.056c0,2.079,1.556,3.814,3.62,4.207
c-0.378,0.1-0.777,0.151-1.189,0.151c-0.291,0-0.573-0.025-0.849-0.077c0.574,1.705,2.242,2.946,4.217,2.981
c-1.545,1.15-3.491,1.837-5.606,1.837c-0.365,0-0.723-0.019-1.077-0.059C1.998,16.29,4.37,17,6.919,17
c8.302,0,12.843-6.538,12.843-12.211c0-0.186-0.004-0.373-0.014-0.556C20.631,3.628,21.396,2.873,22,2.009z"></path></svg>